# File generated by ImageToStl.com - Free Image and 3D model conversion tools

o obj1
v 175 123.93640137 5
v 175 73.93640137 5
v 175 123.93640137 0
v 175 73.93640137 0
v 126.6558075 123.93640137 5
v 126.6558075 123.93640137 0
v 160.92610168 172.87945557 5
v 160.92610168 172.87945557 0
v 163.06181335 173.13433838 0
v 163.06181335 173.13433838 5
v 165.1222229 173.7515564 0
v 165.1222229 173.7515564 5
v 167.04631042 174.71286011 0
v 167.04631042 174.71286011 5
v 168.77711487 175.98979187 0
v 168.77711487 175.98979187 5
v 170.26338196 177.54452515 0
v 170.26338196 177.54452515 5
v 171.46113586 179.33103943 0
v 171.46113586 179.33103943 5
v 172.33488464 181.2964325 0
v 172.33488464 181.2964325 5
v 172.85876465 183.38252258 0
v 172.85876465 183.38252258 5
v 173.01727295 185.52754211 0
v 173.01727295 185.52754211 5
v 172.80570984 187.66796875 0
v 172.80570984 187.66796875 5
v 172.23034668 189.74046326 0
v 172.23034668 189.74046326 5
v 171.30821228 191.68362427 0
v 171.30821228 191.68362427 5
v 170.06660461 193.43992615 0
v 170.06660461 193.43992615 5
v 168.54229736 194.95739746 0
v 168.54229736 194.95739746 5
v 166.78041077 196.19108582 0
v 166.78041077 196.19108582 5
v 164.83311462 197.10446167 0
v 164.83311462 197.10446167 5
v 162.7580719 197.67048645 0
v 162.7580719 197.67048645 5
v 160.61669922 197.87242126 0
v 160.61669922 197.87242126 5
v 158.47241211 197.70425415 0
v 158.47241211 197.70425415 5
v 156.38870239 197.17098999 0
v 156.38870239 197.17098999 5
v 154.42726135 196.28840637 0
v 154.42726135 196.28840637 5
v 152.64616394 195.08262634 0
v 152.64616394 195.08262634 5
v 151.09814453 193.58935547 0
v 151.09814453 193.58935547 5
v 149.82901001 191.85282898 0
v 149.82901001 191.85282898 5
v 148.87637329 189.92443848 0
v 148.87637329 189.92443848 5
v 148.26843262 187.86126709 0
v 148.26843262 187.86126709 5
v 148.0231781 185.72444153 0
v 148.0231781 185.72444153 5
v 148.14787292 183.57719421 0
v 148.14787292 183.57719421 5
v 148.63882446 181.48310852 0
v 148.63882446 181.48310852 5
v 108.3441925 123.93640137 5
v 108.3441925 123.93640137 0
v 66.6558075 123.93640137 5
v 66.6558075 123.93640137 0
v 26.36117172 181.48310852 5
v 26.36117172 181.48310852 -0
v 66.6558075 123.93640137 -0
v 26.36117172 181.48310852 0
v 26.85212326 183.57719421 0
v 26.85212326 183.57719421 5
v 26.97681999 185.72444153 0
v 26.97681999 185.72444153 5
v 26.73156166 187.86126709 0
v 26.73156166 187.86126709 5
v 26.12361717 189.92443848 0
v 26.12361717 189.92443848 5
v 25.17098236 191.85282898 0
v 25.17098236 191.85282898 5
v 23.90185738 193.58935547 0
v 23.90185738 193.58935547 5
v 22.35383606 195.08262634 0
v 22.35383606 195.08262634 5
v 20.57272911 196.28840637 0
v 20.57272911 196.28840637 5
v 18.61128998 197.17098999 0
v 18.61128998 197.17098999 5
v 16.52757835 197.70425415 0
v 16.52757835 197.70425415 5
v 14.38329411 197.87242126 0
v 14.38329411 197.87242126 5
v 12.24193001 197.67048645 0
v 12.24193001 197.67048645 5
v 10.16688347 197.10446167 0
v 10.16688347 197.10446167 5
v 8.21958447 196.19108582 0
v 8.21958447 196.19108582 5
v 6.45770121 194.95739746 0
v 6.45770121 194.95739746 5
v 4.93339443 193.43992615 0
v 4.93339443 193.43992615 5
v 3.6917851 191.68362427 0
v 3.6917851 191.68362427 5
v 2.76964903 189.74046326 0
v 2.76964903 189.74046326 5
v 2.19428539 187.66796875 0
v 2.19428539 187.66796875 5
v 1.9827261 185.52754211 0
v 1.9827261 185.52754211 5
v 2.14122987 183.38252258 0
v 2.14122987 183.38252258 5
v 2.66511726 181.2964325 0
v 2.66511726 181.2964325 5
v 3.53886175 179.33103943 0
v 3.53886175 179.33103943 5
v 4.73660994 177.54452515 0
v 4.73660994 177.54452515 5
v 6.22288895 175.98979187 0
v 6.22288895 175.98979187 5
v 7.95368862 174.71286011 0
v 7.95368862 174.71286011 5
v 9.87777901 173.7515564 0
v 9.87777901 173.7515564 5
v 11.93817711 173.13433838 0
v 11.93817711 173.13433838 5
v 14.07389355 172.87945557 0
v 14.07389355 172.87945557 5
v 48.34418869 123.93640137 5
v 48.34418869 123.93640137 0
v 0 123.93640137 5
v 0 123.93640137 0
v 0 73.93640137 5
v 0 73.93640137 0
v 48.34418869 73.93640137 5
v 48.34418869 73.93640137 0
v 14.07389355 24.99334526 5
v 14.07389355 24.99334526 0
v 11.93817711 24.73846817 0
v 11.93817711 24.73846817 5
v 9.87777901 24.12124062 0
v 9.87777901 24.12124062 5
v 7.95368862 23.1599369 0
v 7.95368862 23.1599369 5
v 6.22288895 21.88301086 0
v 6.22288895 21.88301086 5
v 4.73660994 20.32827568 0
v 4.73660994 20.32827568 5
v 3.53886175 18.5417614 0
v 3.53886175 18.5417614 5
v 2.66511726 16.57636452 0
v 2.66511726 16.57636452 5
v 2.14122987 14.49027634 0
v 2.14122987 14.49027634 5
v 1.9827261 12.34526157 0
v 1.9827261 12.34526157 5
v 2.19428539 10.20482922 0
v 2.19428539 10.20482922 5
v 2.76964903 8.13234615 0
v 2.76964903 8.13234615 5
v 3.6917851 6.18918228 0
v 3.6917851 6.18918228 5
v 4.93339443 4.43287182 0
v 4.93339443 4.43287182 5
v 6.45770121 2.9154048 0
v 6.45770121 2.9154048 5
v 8.21958447 1.68172264 0
v 8.21958447 1.68172264 5
v 10.16688347 0.76834112 0
v 10.16688347 0.76834112 5
v 12.24193001 0.20231307 0
v 12.24193001 0.20231307 5
v 14.38329411 0.00038743 0
v 14.38329411 0.00038743 5
v 16.52757835 0.16854703 0
v 16.52757835 0.16854703 5
v 18.61128998 0.70181489 0
v 18.61128998 0.70181489 5
v 20.57272911 1.58440328 0
v 20.57272911 1.58440328 5
v 22.35383606 2.79018283 0
v 22.35383606 2.79018283 5
v 23.90185738 4.28344297 0
v 23.90185738 4.28344297 5
v 25.17098236 6.01997948 0
v 25.17098236 6.01997948 5
v 26.12361717 7.94836903 0
v 26.12361717 7.94836903 5
v 26.73156166 10.01153183 0
v 26.73156166 10.01153183 5
v 26.97681999 12.14836502 0
v 26.97681999 12.14836502 5
v 26.85212326 14.2956152 0
v 26.85212326 14.2956152 5
v 26.36117172 16.38969803 0
v 26.36117172 16.38969803 5
v 66.6558075 73.93640137 5
v 66.6558075 73.93640137 0
v 108.3441925 73.93640137 5
v 108.3441925 73.93640137 0
v 148.63882446 16.38969803 5
v 148.63882446 16.38969803 0
v 148.14787292 14.2956152 0
v 148.14787292 14.2956152 5
v 148.0231781 12.14836502 0
v 148.0231781 12.14836502 5
v 148.26843262 10.01153183 0
v 148.26843262 10.01153183 5
v 148.87637329 7.94836903 0
v 148.87637329 7.94836903 5
v 149.82901001 6.01997948 0
v 149.82901001 6.01997948 5
v 151.09814453 4.28344297 0
v 151.09814453 4.28344297 5
v 152.64616394 2.79018283 0
v 152.64616394 2.79018283 5
v 154.42726135 1.58440328 0
v 154.42726135 1.58440328 5
v 156.38870239 0.70181489 0
v 156.38870239 0.70181489 5
v 158.47241211 0.16854703 0
v 158.47241211 0.16854703 5
v 160.61669922 0.00038743 0
v 160.61669922 0.00038743 5
v 162.7580719 0.20231307 0
v 162.7580719 0.20231307 5
v 164.83311462 0.76834112 0
v 164.83311462 0.76834112 5
v 166.78041077 1.68172264 0
v 166.78041077 1.68172264 5
v 168.54229736 2.9154048 0
v 168.54229736 2.9154048 5
v 170.06660461 4.43287182 0
v 170.06660461 4.43287182 5
v 171.30821228 6.18918228 0
v 171.30821228 6.18918228 5
v 172.23034668 8.13234615 0
v 172.23034668 8.13234615 5
v 172.80570984 10.20482922 0
v 172.80570984 10.20482922 5
v 173.01727295 12.34526157 0
v 173.01727295 12.34526157 5
v 172.85876465 14.49027634 0
v 172.85876465 14.49027634 5
v 172.33488464 16.57636452 0
v 172.33488464 16.57636452 5
v 171.46113586 18.5417614 0
v 171.46113586 18.5417614 5
v 170.26338196 20.32827568 0
v 170.26338196 20.32827568 5
v 168.77711487 21.88301086 0
v 168.77711487 21.88301086 5
v 167.04631042 23.1599369 0
v 167.04631042 23.1599369 5
v 165.1222229 24.12124062 0
v 165.1222229 24.12124062 5
v 163.06181335 24.73846817 0
v 163.06181335 24.73846817 5
v 160.92610168 24.99334526 0
v 160.92610168 24.99334526 5
v 126.6558075 73.93640137 5
v 126.6558075 73.93640137 0
vn 1 0 0
vn -0 1 0
vn 0.81915 -0.57358 0
vn 0.1185 -0.99295 0
vn 0.28697 -0.95794 0
vn 0.44694 -0.89456 0
vn 0.59368 -0.8047 0
vn 0.72284 -0.69101 0
vn 0.8306 -0.55687 0
vn 0.91377 -0.40623 0
vn 0.96988 -0.24357 0
vn 0.99728 -0.07369 0
vn 0.99515 0.09836 0
vn 0.96356 0.2675 0
vn 0.90343 0.42873 0
vn 0.81656 0.57726 0
vn 0.70552 0.70869 0
vn 0.57358 0.81915 0
vn 0.42466 0.90535 0
vn 0.26316 0.96475 0
vn 0.09388 0.99558 0
vn -0.07818 0.99694 0
vn -0.24793 0.96878 0
vn -0.41034 0.91193 0
vn -0.5606 0.82809 0
vn -0.69426 0.71972 0
vn -0.80737 0.59005 0
vn -0.89657 0.44291 0
vn -0.95922 0.28265 0
vn -0.99348 0.11403 0
vn -0.99832 -0.05798 -0
vn -0.9736 -0.22826 -0
vn -0.81915 0.57358 0
vn 0.81915 0.57358 0
vn 0.9736 -0.22826 0
vn 0.99832 -0.05798 0
vn 0.99348 0.11403 0
vn 0.95922 0.28265 0
vn 0.89657 0.44291 0
vn 0.80737 0.59005 0
vn 0.69426 0.71972 0
vn 0.5606 0.82809 0
vn 0.41034 0.91193 0
vn 0.24793 0.96878 0
vn 0.07818 0.99694 0
vn -0.09388 0.99558 0
vn -0.26316 0.96475 0
vn -0.42466 0.90535 0
vn -0.57358 0.81915 0
vn -0.70552 0.70869 0
vn -0.81656 0.57726 0
vn -0.90343 0.42873 0
vn -0.96356 0.2675 0
vn -0.99515 0.09836 0
vn -0.99728 -0.07369 -0
vn -0.96988 -0.24357 -0
vn -0.91377 -0.40623 -0
vn -0.8306 -0.55687 -0
vn -0.72284 -0.69101 -0
vn -0.59368 -0.8047 -0
vn -0.44694 -0.89456 -0
vn -0.28697 -0.95794 -0
vn -0.1185 -0.99295 -0
vn -0.81915 -0.57358 -0
vn -1 0 0
vn -0 -1 -0
vn -0.81915 0.57358 0
vn -0.1185 0.99295 0
vn -0.28697 0.95794 0
vn -0.44694 0.89456 0
vn -0.59368 0.8047 0
vn -0.72284 0.69101 0
vn -0.8306 0.55687 0
vn -0.91377 0.40623 0
vn -0.96988 0.24357 0
vn -0.99728 0.07369 0
vn -0.99515 -0.09836 -0
vn -0.96356 -0.2675 -0
vn -0.90343 -0.42873 -0
vn -0.81656 -0.57726 -0
vn -0.70552 -0.70869 -0
vn -0.57358 -0.81915 -0
vn -0.42466 -0.90535 -0
vn -0.26316 -0.96475 -0
vn -0.09388 -0.99558 -0
vn 0.07818 -0.99694 0
vn 0.24793 -0.96878 0
vn 0.41034 -0.91193 0
vn 0.5606 -0.82809 0
vn 0.69426 -0.71972 0
vn 0.80737 -0.59005 0
vn 0.89657 -0.44291 0
vn 0.95922 -0.28265 0
vn 0.99348 -0.11403 0
vn 0.99832 0.05798 0
vn 0.9736 0.22826 0
vn 0.81915 -0.57358 0
vn -0.81915 -0.57358 -0
vn -0.9736 0.22826 0
vn -0.99832 0.05798 0
vn -0.99348 -0.11403 -0
vn -0.95922 -0.28265 -0
vn -0.89657 -0.44291 -0
vn -0.80737 -0.59005 -0
vn -0.69426 -0.71972 -0
vn -0.5606 -0.82809 -0
vn -0.41034 -0.91193 -0
vn -0.24793 -0.96878 -0
vn -0.07818 -0.99694 -0
vn 0.09388 -0.99558 0
vn 0.26316 -0.96475 0
vn 0.42466 -0.90535 0
vn 0.57358 -0.81915 0
vn 0.70552 -0.70869 0
vn 0.81656 -0.57726 0
vn 0.90343 -0.42873 0
vn 0.96356 -0.2675 0
vn 0.99515 -0.09836 0
vn 0.99728 0.07369 0
vn 0.96988 0.24357 0
vn 0.91377 0.40623 0
vn 0.8306 0.55687 0
vn 0.72284 0.69101 0
vn 0.59368 0.8047 0
vn 0.44694 0.89456 0
vn 0.28697 0.95794 0
vn 0.1185 0.99295 0
vn 0.81915 0.57358 0
vn 0 0 1
vn 0 0 -1
f 1//1 2//1 3//1
f 3//1 2//1 4//1
f 5//2 1//2 6//2
f 6//2 1//2 3//2
f 7//3 5//3 8//3
f 8//3 5//3 6//3
f 7//4 8//4 9//4
f 7//4 9//4 10//4
f 10//5 9//5 11//5
f 10//5 11//5 12//5
f 12//6 11//6 13//6
f 12//6 13//6 14//6
f 14//7 13//7 15//7
f 14//7 15//7 16//7
f 16//8 15//8 17//8
f 16//8 17//8 18//8
f 18//9 17//9 19//9
f 18//9 19//9 20//9
f 20//10 19//10 21//10
f 20//10 21//10 22//10
f 22//11 21//11 23//11
f 22//11 23//11 24//11
f 24//12 23//12 25//12
f 24//12 25//12 26//12
f 26//13 25//13 27//13
f 26//13 27//13 28//13
f 28//14 27//14 29//14
f 28//14 29//14 30//14
f 30//15 29//15 31//15
f 30//15 31//15 32//15
f 32//16 31//16 33//16
f 32//16 33//16 34//16
f 34//17 33//17 35//17
f 34//17 35//17 36//17
f 36//18 35//18 37//18
f 36//18 37//18 38//18
f 38//19 37//19 39//19
f 38//19 39//19 40//19
f 40//20 39//20 41//20
f 40//20 41//20 42//20
f 42//21 41//21 43//21
f 42//21 43//21 44//21
f 44//22 43//22 45//22
f 44//22 45//22 46//22
f 46//23 45//23 47//23
f 46//23 47//23 48//23
f 48//24 47//24 49//24
f 48//24 49//24 50//24
f 50//25 49//25 51//25
f 50//25 51//25 52//25
f 52//26 51//26 53//26
f 52//26 53//26 54//26
f 54//27 53//27 55//27
f 54//27 55//27 56//27
f 56//28 55//28 57//28
f 56//28 57//28 58//28
f 58//29 57//29 59//29
f 58//29 59//29 60//29
f 60//30 59//30 61//30
f 60//30 61//30 62//30
f 62//31 61//31 63//31
f 62//31 63//31 64//31
f 64//32 63//32 65//32
f 64//32 65//32 66//32
f 67//33 66//33 68//33
f 68//33 66//33 65//33
f 69//2 67//2 70//2
f 70//2 67//2 68//2
f 71//34 69//34 72//34
f 72//34 69//34 73//34
f 71//35 74//35 75//35
f 71//35 75//35 76//35
f 76//36 75//36 77//36
f 76//36 77//36 78//36
f 78//37 77//37 79//37
f 78//37 79//37 80//37
f 80//38 79//38 81//38
f 80//38 81//38 82//38
f 82//39 81//39 83//39
f 82//39 83//39 84//39
f 84//40 83//40 85//40
f 84//40 85//40 86//40
f 86//41 85//41 87//41
f 86//41 87//41 88//41
f 88//42 87//42 89//42
f 88//42 89//42 90//42
f 90//43 89//43 91//43
f 90//43 91//43 92//43
f 92//44 91//44 93//44
f 92//44 93//44 94//44
f 94//45 93//45 95//45
f 94//45 95//45 96//45
f 96//46 95//46 97//46
f 96//46 97//46 98//46
f 98//47 97//47 99//47
f 98//47 99//47 100//47
f 100//48 99//48 101//48
f 100//48 101//48 102//48
f 102//49 101//49 103//49
f 102//49 103//49 104//49
f 104//50 103//50 105//50
f 104//50 105//50 106//50
f 106//51 105//51 107//51
f 106//51 107//51 108//51
f 108//52 107//52 109//52
f 108//52 109//52 110//52
f 110//53 109//53 111//53
f 110//53 111//53 112//53
f 112//54 111//54 113//54
f 112//54 113//54 114//54
f 114//55 113//55 115//55
f 114//55 115//55 116//55
f 116//56 115//56 117//56
f 116//56 117//56 118//56
f 118//57 117//57 119//57
f 118//57 119//57 120//57
f 120//58 119//58 121//58
f 120//58 121//58 122//58
f 122//59 121//59 123//59
f 122//59 123//59 124//59
f 124//60 123//60 125//60
f 124//60 125//60 126//60
f 126//61 125//61 127//61
f 126//61 127//61 128//61
f 128//62 127//62 129//62
f 128//62 129//62 130//62
f 130//63 129//63 131//63
f 130//63 131//63 132//63
f 133//64 132//64 134//64
f 134//64 132//64 131//64
f 135//2 133//2 136//2
f 136//2 133//2 134//2
f 137//65 135//65 138//65
f 138//65 135//65 136//65
f 139//66 137//66 140//66
f 140//66 137//66 138//66
f 141//67 139//67 142//67
f 142//67 139//67 140//67
f 141//68 142//68 143//68
f 141//68 143//68 144//68
f 144//69 143//69 145//69
f 144//69 145//69 146//69
f 146//70 145//70 147//70
f 146//70 147//70 148//70
f 148//71 147//71 149//71
f 148//71 149//71 150//71
f 150//72 149//72 151//72
f 150//72 151//72 152//72
f 152//73 151//73 153//73
f 152//73 153//73 154//73
f 154//74 153//74 155//74
f 154//74 155//74 156//74
f 156//75 155//75 157//75
f 156//75 157//75 158//75
f 158//76 157//76 159//76
f 158//76 159//76 160//76
f 160//77 159//77 161//77
f 160//77 161//77 162//77
f 162//78 161//78 163//78
f 162//78 163//78 164//78
f 164//79 163//79 165//79
f 164//79 165//79 166//79
f 166//80 165//80 167//80
f 166//80 167//80 168//80
f 168//81 167//81 169//81
f 168//81 169//81 170//81
f 170//82 169//82 171//82
f 170//82 171//82 172//82
f 172//83 171//83 173//83
f 172//83 173//83 174//83
f 174//84 173//84 175//84
f 174//84 175//84 176//84
f 176//85 175//85 177//85
f 176//85 177//85 178//85
f 178//86 177//86 179//86
f 178//86 179//86 180//86
f 180//87 179//87 181//87
f 180//87 181//87 182//87
f 182//88 181//88 183//88
f 182//88 183//88 184//88
f 184//89 183//89 185//89
f 184//89 185//89 186//89
f 186//90 185//90 187//90
f 186//90 187//90 188//90
f 188//91 187//91 189//91
f 188//91 189//91 190//91
f 190//92 189//92 191//92
f 190//92 191//92 192//92
f 192//93 191//93 193//93
f 192//93 193//93 194//93
f 194//94 193//94 195//94
f 194//94 195//94 196//94
f 196//95 195//95 197//95
f 196//95 197//95 198//95
f 198//96 197//96 199//96
f 198//96 199//96 200//96
f 201//97 200//97 202//97
f 202//97 200//97 199//97
f 203//66 201//66 204//66
f 204//66 201//66 202//66
f 205//98 203//98 206//98
f 206//98 203//98 204//98
f 205//99 206//99 207//99
f 205//99 207//99 208//99
f 208//100 207//100 209//100
f 208//100 209//100 210//100
f 210//101 209//101 211//101
f 210//101 211//101 212//101
f 212//102 211//102 213//102
f 212//102 213//102 214//102
f 214//103 213//103 215//103
f 214//103 215//103 216//103
f 216//104 215//104 217//104
f 216//104 217//104 218//104
f 218//105 217//105 219//105
f 218//105 219//105 220//105
f 220//106 219//106 221//106
f 220//106 221//106 222//106
f 222//107 221//107 223//107
f 222//107 223//107 224//107
f 224//108 223//108 225//108
f 224//108 225//108 226//108
f 226//109 225//109 227//109
f 226//109 227//109 228//109
f 228//110 227//110 229//110
f 228//110 229//110 230//110
f 230//111 229//111 231//111
f 230//111 231//111 232//111
f 232//112 231//112 233//112
f 232//112 233//112 234//112
f 234//113 233//113 235//113
f 234//113 235//113 236//113
f 236//114 235//114 237//114
f 236//114 237//114 238//114
f 238//115 237//115 239//115
f 238//115 239//115 240//115
f 240//116 239//116 241//116
f 240//116 241//116 242//116
f 242//117 241//117 243//117
f 242//117 243//117 244//117
f 244//118 243//118 245//118
f 244//118 245//118 246//118
f 246//119 245//119 247//119
f 246//119 247//119 248//119
f 248//120 247//120 249//120
f 248//120 249//120 250//120
f 250//121 249//121 251//121
f 250//121 251//121 252//121
f 252//122 251//122 253//122
f 252//122 253//122 254//122
f 254//123 253//123 255//123
f 254//123 255//123 256//123
f 256//124 255//124 257//124
f 256//124 257//124 258//124
f 258//125 257//125 259//125
f 258//125 259//125 260//125
f 260//126 259//126 261//126
f 260//126 261//126 262//126
f 262//127 261//127 263//127
f 262//127 263//127 264//127
f 265//128 264//128 266//128
f 266//128 264//128 263//128
f 2//66 265//66 4//66
f 4//66 265//66 266//66
f 133//129 135//129 137//129
f 203//129 205//129 264//129
f 78//129 80//129 132//129
f 256//129 258//129 224//129
f 224//129 258//129 260//129
f 224//129 260//129 222//129
f 78//129 132//129 76//129
f 69//129 139//129 67//129
f 67//129 139//129 5//129
f 67//129 5//129 66//129
f 66//129 5//129 7//129
f 66//129 7//129 64//129
f 212//129 214//129 264//129
f 264//129 214//129 216//129
f 264//129 216//129 262//129
f 262//129 216//129 218//129
f 262//129 218//129 260//129
f 260//129 218//129 220//129
f 260//129 220//129 222//129
f 205//129 208//129 264//129
f 264//129 208//129 210//129
f 264//129 210//129 212//129
f 182//129 184//129 160//129
f 2//129 1//129 265//129
f 265//129 1//129 5//129
f 116//129 84//129 114//129
f 114//129 84//129 86//129
f 114//129 86//129 112//129
f 116//129 118//129 84//129
f 84//129 118//129 120//129
f 84//129 120//129 122//129
f 40//129 7//129 38//129
f 38//129 7//129 10//129
f 38//129 10//129 36//129
f 137//129 139//129 133//129
f 133//129 139//129 69//129
f 133//129 69//129 132//129
f 132//129 69//129 71//129
f 132//129 71//129 76//129
f 226//129 228//129 252//129
f 252//129 228//129 230//129
f 252//129 230//129 232//129
f 226//129 252//129 224//129
f 224//129 252//129 254//129
f 224//129 254//129 256//129
f 190//129 192//129 141//129
f 141//129 192//129 194//129
f 141//129 194//129 196//129
f 141//129 144//129 190//129
f 190//129 144//129 146//129
f 190//129 146//129 148//129
f 148//129 150//129 190//129
f 190//129 150//129 152//129
f 190//129 152//129 154//129
f 154//129 156//129 190//129
f 190//129 156//129 158//129
f 190//129 158//129 160//129
f 98//129 100//129 102//129
f 122//129 124//129 84//129
f 84//129 124//129 126//129
f 84//129 126//129 128//129
f 80//129 82//129 132//129
f 132//129 82//129 84//129
f 132//129 84//129 130//129
f 130//129 84//129 128//129
f 20//129 22//129 34//129
f 40//129 42//129 7//129
f 7//129 42//129 44//129
f 7//129 44//129 46//129
f 264//129 265//129 203//129
f 203//129 265//129 5//129
f 203//129 5//129 201//129
f 201//129 5//129 139//129
f 201//129 139//129 200//129
f 200//129 139//129 141//129
f 200//129 141//129 198//129
f 198//129 141//129 196//129
f 184//129 186//129 160//129
f 160//129 186//129 188//129
f 160//129 188//129 190//129
f 112//129 86//129 110//129
f 110//129 86//129 88//129
f 110//129 88//129 90//129
f 98//129 102//129 96//129
f 58//129 60//129 7//129
f 7//129 60//129 62//129
f 7//129 62//129 64//129
f 46//129 48//129 7//129
f 7//129 48//129 50//129
f 7//129 50//129 52//129
f 52//129 54//129 7//129
f 7//129 54//129 56//129
f 7//129 56//129 58//129
f 232//129 234//129 252//129
f 252//129 234//129 236//129
f 252//129 236//129 238//129
f 160//129 162//129 164//129
f 96//129 102//129 94//129
f 94//129 102//129 104//129
f 94//129 104//129 106//129
f 90//129 92//129 110//129
f 110//129 92//129 94//129
f 110//129 94//129 108//129
f 108//129 94//129 106//129
f 26//129 28//129 30//129
f 248//129 242//129 246//129
f 246//129 242//129 244//129
f 238//129 240//129 252//129
f 252//129 240//129 242//129
f 252//129 242//129 250//129
f 250//129 242//129 248//129
f 164//129 166//129 160//129
f 160//129 166//129 168//129
f 160//129 168//129 170//129
f 170//129 172//129 160//129
f 160//129 172//129 174//129
f 160//129 174//129 176//129
f 176//129 178//129 160//129
f 160//129 178//129 180//129
f 160//129 180//129 182//129
f 36//129 10//129 34//129
f 34//129 10//129 12//129
f 34//129 12//129 14//129
f 22//129 24//129 34//129
f 34//129 24//129 26//129
f 34//129 26//129 32//129
f 32//129 26//129 30//129
f 14//129 16//129 34//129
f 34//129 16//129 18//129
f 34//129 18//129 20//129
f 143//130 142//130 189//130
f 45//130 43//130 8//130
f 37//130 35//130 8//130
f 8//130 35//130 33//130
f 8//130 33//130 9//130
f 9//130 33//130 11//130
f 127//130 125//130 83//130
f 111//130 109//130 83//130
f 157//130 155//130 189//130
f 219//130 217//130 259//130
f 43//130 41//130 8//130
f 8//130 41//130 39//130
f 8//130 39//130 37//130
f 68//130 65//130 8//130
f 8//130 65//130 63//130
f 8//130 63//130 61//130
f 81//130 79//130 131//130
f 131//130 79//130 77//130
f 3//130 4//130 6//130
f 6//130 4//130 266//130
f 155//130 153//130 189//130
f 189//130 153//130 151//130
f 189//130 151//130 149//130
f 149//130 147//130 189//130
f 189//130 147//130 145//130
f 189//130 145//130 143//130
f 202//130 199//130 142//130
f 142//130 199//130 197//130
f 142//130 197//130 195//130
f 195//130 193//130 142//130
f 142//130 193//130 191//130
f 142//130 191//130 189//130
f 263//130 211//130 209//130
f 229//130 227//130 251//130
f 259//130 217//130 261//130
f 261//130 217//130 215//130
f 261//130 215//130 263//130
f 263//130 215//130 213//130
f 263//130 213//130 211//130
f 138//130 136//130 140//130
f 140//130 136//130 134//130
f 51//130 8//130 53//130
f 53//130 8//130 55//130
f 51//130 49//130 8//130
f 8//130 49//130 47//130
f 8//130 47//130 45//130
f 31//130 29//130 21//130
f 61//130 59//130 8//130
f 8//130 59//130 57//130
f 8//130 57//130 55//130
f 8//130 6//130 68//130
f 68//130 6//130 266//130
f 68//130 266//130 70//130
f 70//130 266//130 134//130
f 70//130 134//130 74//130
f 74//130 134//130 131//130
f 74//130 131//130 75//130
f 75//130 131//130 77//130
f 81//130 131//130 83//130
f 83//130 131//130 129//130
f 83//130 129//130 127//130
f 83//130 119//130 117//130
f 157//130 189//130 159//130
f 159//130 189//130 187//130
f 159//130 187//130 185//130
f 142//130 140//130 202//130
f 202//130 140//130 134//130
f 202//130 134//130 204//130
f 204//130 134//130 266//130
f 204//130 266//130 206//130
f 206//130 266//130 263//130
f 206//130 263//130 207//130
f 207//130 263//130 209//130
f 223//130 257//130 255//130
f 257//130 223//130 259//130
f 259//130 223//130 221//130
f 259//130 221//130 219//130
f 125//130 123//130 83//130
f 83//130 123//130 121//130
f 83//130 121//130 119//130
f 117//130 115//130 83//130
f 83//130 115//130 113//130
f 83//130 113//130 111//130
f 91//130 89//130 109//130
f 185//130 183//130 159//130
f 159//130 183//130 181//130
f 159//130 181//130 179//130
f 227//130 225//130 251//130
f 251//130 225//130 223//130
f 251//130 223//130 253//130
f 253//130 223//130 255//130
f 29//130 27//130 21//130
f 21//130 27//130 25//130
f 21//130 25//130 23//130
f 31//130 21//130 33//130
f 33//130 21//130 19//130
f 33//130 19//130 17//130
f 101//130 99//130 97//130
f 89//130 87//130 109//130
f 109//130 87//130 85//130
f 109//130 85//130 83//130
f 179//130 177//130 159//130
f 159//130 177//130 175//130
f 159//130 175//130 173//130
f 173//130 171//130 159//130
f 159//130 171//130 169//130
f 159//130 169//130 167//130
f 167//130 165//130 159//130
f 159//130 165//130 163//130
f 159//130 163//130 161//130
f 17//130 15//130 33//130
f 33//130 15//130 13//130
f 33//130 13//130 11//130
f 91//130 109//130 93//130
f 93//130 109//130 107//130
f 93//130 107//130 105//130
f 105//130 103//130 93//130
f 93//130 103//130 101//130
f 93//130 101//130 95//130
f 95//130 101//130 97//130
f 249//130 247//130 241//130
f 241//130 247//130 245//130
f 241//130 245//130 243//130
f 237//130 235//130 251//130
f 249//130 241//130 251//130
f 251//130 241//130 239//130
f 251//130 239//130 237//130
f 235//130 233//130 251//130
f 251//130 233//130 231//130
f 251//130 231//130 229//130
# Vertices: 266, normals: 130, texture coordinates: 0, faces: 524

